<?xml version="1.0" encoding="UTF-8"?>
<svg id="Capa_1" xmlns="http://www.w3.org/2000/svg" version="1.1" viewBox="0 0 758.825 76.206">
  <!-- Generator: Adobe Illustrator 29.5.1, SVG Export Plug-In . SVG Version: 2.1.0 Build 141)  -->
  <g>
    <g>
      <path d="M320.226,61.413h-16.612V14.872h16.612c7.577,0,12.599,3.004,15.065,9.012,1.435,3.453,2.152,7.981,2.152,13.586,0,11.702-2.915,19.079-8.743,22.127-2.332,1.21-5.157,1.816-8.475,1.816ZM332.13,37.471c0-8.922-1.996-14.482-5.985-16.68-1.614-.896-3.588-1.345-5.919-1.345h-11.433v37.394h11.433c7.937,0,11.904-6.457,11.904-19.37Z" fill="#fff"/>
      <path d="M341.143,66.256v-4.641c3.229,0,5.302-.392,6.221-1.177.918-.784,1.379-2.835,1.379-6.154V14.872h5.111l.067,40.152c0,3.766-.628,6.523-1.883,8.272-1.032,1.479-3.072,2.398-6.12,2.757-1.211.134-2.803.202-4.775.202Z" fill="#fff"/>
      <path d="M391.517,14.872h5.381l-12.174,46.541h-11.568l-12.173-46.541h5.38l10.693,41.968h3.767l10.693-41.968Z" fill="#fff"/>
      <path d="M419.022,14.872h16.881c4.617,0,8.081.953,10.391,2.858,2.31,1.906,3.464,4.899,3.464,8.979,0,2.916-.504,5.19-1.513,6.827-1.009,1.637-2.5,2.926-4.473,3.867,4.932,1.705,7.397,5.358,7.397,10.963,0,4.664-1.233,8.003-3.698,10.021-2.467,2.018-6.031,3.026-10.694,3.026h-17.755V14.872ZM435.701,19.446h-11.5v16.074h11.971c2.869,0,4.966-.683,6.289-2.051,1.321-1.367,1.983-3.43,1.983-6.188s-.706-4.752-2.118-5.986c-1.412-1.232-3.621-1.849-6.625-1.849ZM436.239,40.026h-12.038v16.814h12.375c3.048,0,5.368-.639,6.961-1.917,1.591-1.278,2.388-3.531,2.388-6.759,0-1.703-.326-3.138-.976-4.304-.65-1.166-1.514-1.995-2.59-2.488-1.973-.896-4.013-1.345-6.12-1.345Z" fill="#fff"/>
      <path d="M495.357,38.479c0,8.295-1.323,14.303-3.969,18.024-2.646,3.722-7.455,5.582-14.426,5.582s-11.781-1.905-14.427-5.716c-2.646-3.811-3.968-9.808-3.968-17.991s1.345-14.258,4.035-18.226,7.466-5.952,14.325-5.952,11.646,1.974,14.359,5.918c2.712,3.946,4.069,10.066,4.069,18.361ZM463.882,38.345c0,6.816.896,11.714,2.689,14.695,1.793,2.982,5.257,4.473,10.392,4.473s8.585-1.457,10.357-4.372c1.771-2.914,2.656-7.802,2.656-14.662s-.92-11.859-2.758-14.998c-1.839-3.138-5.279-4.708-10.323-4.708s-8.475,1.559-10.29,4.674c-1.816,3.117-2.724,8.083-2.724,14.897Z" fill="#fff"/>
      <path d="M539.745,38.479c0,8.295-1.323,14.303-3.969,18.024-2.646,3.722-7.455,5.582-14.426,5.582s-11.781-1.905-14.427-5.716c-2.646-3.811-3.968-9.808-3.968-17.991s1.345-14.258,4.035-18.226,7.466-5.952,14.325-5.952,11.646,1.974,14.359,5.918c2.712,3.946,4.069,10.066,4.069,18.361ZM508.27,38.345c0,6.816.896,11.714,2.689,14.695,1.793,2.982,5.257,4.473,10.392,4.473s8.585-1.457,10.357-4.372c1.771-2.914,2.656-7.802,2.656-14.662s-.92-11.859-2.758-14.998c-1.839-3.138-5.279-4.708-10.323-4.708s-8.475,1.559-10.29,4.674c-1.816,3.117-2.724,8.083-2.724,14.897Z" fill="#fff"/>
      <path d="M543.041,19.513v-4.641h33.627v4.641h-14.19v41.9h-5.111V19.513h-14.325Z" fill="#fff"/>
      <path d="M610.43,60.674c-4.618.941-8.766,1.412-12.441,1.412s-6.648-.504-8.912-1.513c-2.265-1.009-4.014-2.578-5.246-4.708-1.233-2.129-2.085-4.573-2.556-7.331s-.706-6.198-.706-10.324.235-7.588.706-10.391c.471-2.802,1.322-5.279,2.556-7.432,1.232-2.152,2.97-3.721,5.213-4.708,2.241-.986,5.155-1.479,8.743-1.479s7.802.494,12.644,1.479l-.201,4.372c-4.529-.807-8.564-1.21-12.106-1.21-4.933,0-8.194,1.469-9.785,4.405-1.593,2.937-2.388,7.948-2.388,15.032,0,3.542.145,6.389.437,8.542.291,2.152.863,4.092,1.715,5.817.852,1.727,2.096,2.959,3.733,3.699,1.636.74,4.035,1.109,7.196,1.109s6.894-.403,11.198-1.21l.201,4.439Z" fill="#fff"/>
      <path d="M614.802,61.413l12.778-46.541h11.299l12.778,46.541h-5.111l-3.362-11.972h-19.908l-3.362,11.972h-5.111ZM631.481,19.311l-7.062,25.49h17.621l-7.062-25.49h-3.497Z" fill="#fff"/>
      <path d="M658.988,61.413V14.872h9.349l13.182,39.345,13.183-39.345h9.349v46.541h-5.179V20.388h-.942l-13.518,39.345h-5.784l-13.519-39.345h-.941v41.026h-5.179Z" fill="#fff"/>
      <path d="M732.498,45.743h-11.837v15.67h-5.179V14.872h17.016c5.066,0,8.811,1.234,11.231,3.699,2.422,2.466,3.632,6.233,3.632,11.299,0,10.583-4.955,15.873-14.863,15.873ZM720.661,41.169h11.77c6.411,0,9.617-3.766,9.617-11.299,0-3.586-.763-6.221-2.286-7.902-1.525-1.682-3.968-2.522-7.331-2.522h-11.77v21.723Z" fill="#fff"/>
    </g>
    <path d="M275.682,62.863c-.552,0-1-.448-1-1V14.358c0-.552.448-1,1-1s1,.448,1,1v47.505c0,.552-.448,1-1,1Z" fill="#fff"/>
  </g>
  <g>
    <polygon points="21.103 60.36 33.023 60.36 33.023 45.116 51.237 45.116 51.237 35.086 33.023 35.086 33.023 24.263 53.996 24.263 53.996 13.836 21.103 13.836 21.103 60.36" fill="#fff"/>
    <path d="M132.044,13.836h-18.107v46.524h11.854v-12.736h6.253c14.395,0,20.778-4.883,20.778-16.828,0-12.077-6.383-16.96-20.778-16.96ZM132.761,37.131h-6.97v-12.802h6.97c5.732,0,8.272,1.584,8.272,6.467,0,4.751-2.54,6.335-8.272,6.335Z" fill="#fff"/>
    <polygon points="159.905 60.36 196.445 60.36 196.445 51.055 171.824 51.055 171.824 41.751 193.686 41.751 193.686 32.446 171.824 32.446 171.824 23.141 196.445 23.141 196.445 13.836 159.905 13.836 159.905 60.36" fill="#fff"/>
    <path d="M239.002,13.836h-21.69l-14.721,46.524h12.441l2.835-9.272h20.348l2.871,9.272h12.571l-14.655-46.524ZM220.408,41.784l6.012-18.643h3.204l5.742,18.643h-14.958Z" fill="#fff"/>
    <path d="M83.312,12.252c-13.698,0-24.803,11.105-24.803,24.803s11.105,24.803,24.803,24.803,24.803-11.105,24.803-24.803-11.105-24.803-24.803-24.803ZM83.312,49.533c-6.892,0-12.478-5.587-12.478-12.478s5.587-12.478,12.478-12.478,12.478,5.587,12.478,12.478-5.587,12.478-12.478,12.478Z" fill="#fff"/>
  </g>
</svg>