<?xml version="1.0" encoding="UTF-8"?>
<svg id="Layer_1" xmlns="http://www.w3.org/2000/svg" version="1.1" viewBox="0 0 64 64">
  <!-- Generator: Adobe Illustrator 30.0.0, SVG Export Plug-In . SVG Version: 2.1.1 Build 123)  -->
  <defs>
    <style>
      .st0 {
        fill-rule: evenodd;
      }
    </style>
  </defs>
  <path class="st0" d="M62.2,31.2c0,16.3-13.3,29.4-29.7,29.4s-10.1-1.3-14.3-3.7L1.8,62.2l5.4-15.8c-2.7-4.4-4.3-9.6-4.3-15.2C2.9,15,16.2,1.8,32.6,1.8s29.7,13.2,29.7,29.4h0ZM32.6,6.5c-13.8,0-24.9,11.1-24.9,24.7s1.8,10.4,4.8,14.5l-3.1,9.2,9.6-3c3.9,2.6,8.7,4.1,13.7,4.1,13.8,0,24.9-11.1,24.9-24.7S46.3,6.5,32.6,6.5h0ZM47.5,38c-.2-.3-.7-.5-1.4-.8-.7-.4-4.3-2.1-5-2.3-.7-.2-1.2-.4-1.6.4-.5.7-1.9,2.3-2.3,2.8-.4.5-.8.5-1.6.2-.7-.4-3.1-1.1-5.8-3.6-2.2-1.9-3.6-4.3-4-5-.4-.7,0-1.1.3-1.5.3-.3.7-.8,1.1-1.3.4-.4.5-.7.7-1.2.2-.5.1-.9,0-1.3-.2-.4-1.6-3.9-2.2-5.4-.6-1.4-1.2-1.4-1.6-1.4s-1.2.1-1.2.1c0,0-1.5.2-2.1.9-.7.7-2.5,2.5-2.5,6s2.6,7,3,7.5c.4.5,5,8,12.4,10.9,7.4,2.9,7.4,1.9,8.7,1.8,1.3-.1,4.3-1.7,4.9-3.4.6-1.7.6-3.1.4-3.4h0ZM47.5,38"/>
</svg>